<?xml version="1.0" standalone="no"?>
<!DOCTYPE svg PUBLIC "-//W3C//DTD SVG 20010904//EN"
 "http://www.w3.org/TR/2001/REC-SVG-20010904/DTD/svg10.dtd">
<svg version="1.0" xmlns="http://www.w3.org/2000/svg"
 width="81.000000pt" height="81.000000pt" viewBox="0 0 81.000000 81.000000"
 preserveAspectRatio="xMidYMid meet">
<metadata>
Created by potrace 1.11, written by Peter Selinger 2001-2013
</metadata>
<g transform="translate(0.000000,81.000000) scale(0.100000,-0.100000)"
fill="#000000" stroke="none">
<path d="M0 595 l0 -215 38 0 c28 0 44 6 60 25 19 22 30 25 91 25 60 0 74 3
101 26 28 24 36 26 93 20 109 -10 141 -18 170 -42 21 -18 41 -24 74 -24 36 0
51 -5 69 -25 13 -14 34 -25 48 -25 13 0 31 -3 40 -6 14 -5 16 18 16 225 l0
231 -400 0 -400 0 0 -215z"/>
<path d="M413 363 c-30 -3 -46 -11 -57 -29 -14 -21 -24 -24 -74 -24 -46 0 -65
-5 -92 -25 -29 -22 -44 -25 -112 -25 l-78 0 0 -120 0 -120 400 0 400 0 0 111
c0 96 -2 110 -14 100 -12 -10 -18 -7 -31 13 -13 19 -26 26 -51 26 -22 0 -41 8
-56 24 -14 15 -39 26 -65 29 -23 3 -54 14 -69 26 -15 12 -34 20 -43 19 -9 -1
-35 -3 -58 -5z"/>
</g>
</svg>
